<svg width="222" height="60" viewBox="0 0 222 60" fill="none" xmlns="http://www.w3.org/2000/svg">
<path d="M58.3092 11.8369V47.7454H50.9883V11.8369H58.3092Z" fill="white"/>
<path d="M88.1904 23.5343V47.8248C88.1904 55.3646 82.3217 59.9999 75.14 59.9999C68.2169 59.9999 63.0445 55.7028 62.5471 49.6351L69.8482 49.6749C70.1466 52.2611 72.4145 53.3752 75.3986 53.3752C78.2235 53.3752 80.8495 51.8632 80.8495 47.9243V44.8208C78.9795 46.0343 76.5922 46.7505 73.9264 46.7505C67.2421 46.7505 61.8906 41.3394 61.8906 35.1126C61.8906 27.8712 67.262 23.0171 73.9264 23.0171C76.6121 23.0171 78.9795 23.7333 80.8495 24.9468V23.6338L88.1904 23.5343ZM80.8694 37.838V31.9296C79.3774 29.7611 77.3084 29.0449 75.2593 29.0449C71.6585 29.0449 69.1519 31.4521 69.1519 35.1126C69.1519 37.7983 71.6585 40.7426 75.2593 40.7426C77.3084 40.7227 79.3774 39.9866 80.8694 37.838Z" fill="white"/>
<path d="M117.393 35.3515C117.393 42.8316 111.863 48.1631 104.442 48.1631C96.9622 48.1631 91.4316 42.8316 91.4316 35.3515C91.4316 27.931 96.9622 22.5 104.442 22.5C111.863 22.5 117.393 27.931 117.393 35.3515ZM110.331 35.3515C110.331 31.8302 108.023 28.9854 104.442 28.9854C100.822 28.9854 98.5139 31.8302 98.5139 35.3515C98.5139 38.9722 100.822 41.6777 104.442 41.6777C108.003 41.6578 110.331 38.9722 110.331 35.3515Z" fill="white"/>
<path d="M162.852 23.5745V47.7058L155.67 47.7456V46.3729C153.8 47.5864 151.413 48.3424 148.747 48.3424C142.062 48.3424 136.711 42.6726 136.711 35.6899C136.711 28.6673 142.082 22.9976 148.747 22.9976C151.432 22.9976 153.8 23.7535 155.67 24.9671V23.5944L162.852 23.5745ZM155.67 39.3901V31.9896C154.158 29.8411 152.049 29.2442 149.94 29.2442C146.26 29.2442 143.714 32.1885 143.714 35.7098C143.714 39.1912 146.26 42.1355 149.94 42.1355C152.049 42.1156 154.158 41.5387 155.67 39.3901Z" fill="white"/>
<path d="M192.374 34.6351V47.7452H185.311V35.4906C185.311 31.5516 183.342 29.4627 179.841 29.4627C178.01 29.4627 176.001 30.5171 174.27 32.5463V47.7452H167.049V23.6139H174.27V25.4441C176.24 23.8725 178.528 23.0171 181.253 23.0171C187.699 23.0171 192.374 27.5529 192.374 34.6351Z" fill="white"/>
<path d="M47.6459 47.7255H40.1857L35.3316 29.6817L24.8873 47.7255H16.5517L32.6658 19.7944L30.0796 10.0862L8.33555 47.7454H0L27.5531 0H34.8541L38.057 11.8568H45.5968L40.4443 20.809L47.6459 47.7255Z" fill="white"/>
<path d="M221.538 11.8368V47.7453H214.217V46.3726C212.347 47.5861 209.959 48.3421 207.294 48.3421C200.609 48.3421 195.258 42.6723 195.258 35.6498C195.258 28.667 200.629 22.9973 207.294 22.9973C209.979 22.9973 212.347 23.7532 214.217 24.9668V11.8169L221.538 11.8368ZM214.217 39.4097V31.9495C212.685 29.7811 210.556 29.1843 208.447 29.1843C204.747 29.1843 202.181 32.1485 202.181 35.6498C202.181 39.2108 204.747 42.175 208.447 42.175C210.556 42.175 212.685 41.5782 214.217 39.4097Z" fill="white"/>
<path d="M135.398 29.7017C133.806 29.9006 130.066 30.0797 127.878 33.1035V47.7653H120.656V23.6539H127.878V25.4643C129.529 24.0518 132.016 23.2163 135.398 23.5545" fill="white"/>
</svg>
