<svg width="16" height="16" viewBox="0 0 16 16" fill="none" xmlns="http://www.w3.org/2000/svg">
<path d="M4.70711 5.29289C4.31658 4.90237 3.68342 4.90237 3.29289 5.29289C2.90237 5.68342 2.90237 6.31658 3.29289 6.70711L4.70711 5.29289ZM12.7071 6.70711C13.0976 6.31658 13.0976 5.68342 12.7071 5.29289C12.3166 4.90237 11.6834 4.90237 11.2929 5.29289L12.7071 6.70711ZM8.28284 9.71716L7.57574 9.01005L8.28284 9.71716ZM3.29289 6.70711L7.01005 10.4243L8.42426 9.01005L4.70711 5.29289L3.29289 6.70711ZM8.98995 10.4243L12.7071 6.70711L11.2929 5.29289L7.57574 9.01005L8.98995 10.4243ZM7.01005 10.4243C7.55679 10.971 8.44322 10.971 8.98995 10.4243L7.57574 9.01005C7.81005 8.77574 8.18995 8.77574 8.42426 9.01005L7.01005 10.4243Z" fill="white"/>
</svg>
