<svg viewBox="0 0 20 15"
  xmlns="http://www.w3.org/2000/svg">
  <path d="M14.7603 14.3837C14.7603 14.3837 14.1438 13.6474 13.6301 12.9967C15.8733 12.3632 16.7295 10.959 16.7295 10.959C16.0274 11.4214 15.3596 11.7467 14.7603 11.9693C13.9041 12.3289 13.0822 12.5686 12.2774 12.7056C10.6336 13.0138 9.12671 12.9282 7.84246 12.6885C6.86644 12.5001 6.0274 12.2262 5.32534 11.9522C4.93151 11.7981 4.50342 11.6097 4.07534 11.37C4.02397 11.3358 3.9726 11.3186 3.92123 11.2844C3.88699 11.2673 3.86986 11.2501 3.85274 11.233C3.54452 11.0618 3.37329 10.9419 3.37329 10.9419C3.37329 10.9419 4.19521 12.3118 6.36986 12.9625C5.85616 13.6132 5.2226 14.3837 5.2226 14.3837C1.43836 14.2638 0 11.781 0 11.781C0 6.26727 2.46575 1.79809 2.46575 1.79809C4.93151 -0.0512274 7.2774 0.000142298 7.2774 0.000142298L7.44863 0.205621C4.36644 1.09603 2.94521 2.44877 2.94521 2.44877C2.94521 2.44877 3.32192 2.24329 3.95548 1.9522C5.78767 1.1474 7.24315 0.9248 7.84246 0.87343C7.9452 0.856307 8.03082 0.839183 8.13356 0.839183C9.17808 0.702197 10.3596 0.66795 11.5925 0.804937C13.2192 0.993293 14.9658 1.47274 16.7466 2.44877C16.7466 2.44877 15.3938 1.16453 12.4829 0.274115L12.7226 0.000142298C12.7226 0.000142298 15.0685 -0.0512274 17.5342 1.79809C17.5342 1.79809 20 6.26727 20 11.781C20 11.781 18.5445 14.2638 14.7603 14.3837ZM6.79794 6.38713C5.82192 6.38713 5.05137 7.24329 5.05137 8.28781C5.05137 9.33233 5.83904 10.1885 6.79794 10.1885C7.77397 10.1885 8.54452 9.33233 8.54452 8.28781C8.56164 7.24329 7.77397 6.38713 6.79794 6.38713ZM13.0479 6.38713C12.0719 6.38713 11.3014 7.24329 11.3014 8.28781C11.3014 9.33233 12.089 10.1885 13.0479 10.1885C14.024 10.1885 14.7945 9.33233 14.7945 8.28781C14.7945 7.24329 14.024 6.38713 13.0479 6.38713Z"/>
</svg>
