<svg width="16" height="16" viewBox="0 0 16 16" fill="none" xmlns="http://www.w3.org/2000/svg">
<path d="M3.70711 6.79289C3.31658 6.40237 2.68342 6.40237 2.29289 6.79289C1.90237 7.18342 1.90237 7.81658 2.29289 8.20711L3.70711 6.79289ZM13.2071 5.70711C13.5976 5.31658 13.5976 4.68342 13.2071 4.29289C12.8166 3.90237 12.1834 3.90237 11.7929 4.29289L13.2071 5.70711ZM6.21716 10.7172L6.92426 10.0101L6.21716 10.7172ZM6.78284 10.7172L6.07574 10.0101L6.78284 10.7172ZM2.29289 8.20711L5.51005 11.4243L6.92426 10.0101L3.70711 6.79289L2.29289 8.20711ZM7.48995 11.4243L13.2071 5.70711L11.7929 4.29289L6.07574 10.0101L7.48995 11.4243ZM5.51005 11.4243C6.05679 11.971 6.94322 11.971 7.48995 11.4243L6.07574 10.0101C6.31005 9.77574 6.68995 9.77574 6.92426 10.0101L5.51005 11.4243Z" fill="white"/>
</svg>
