<svg width="71" height="60" viewBox="0 0 71 60" fill="none" xmlns="http://www.w3.org/2000/svg">
<path d="M22.7202 12.0149C23.0632 11.3118 23.3719 10.6601 23.7149 10.0084C26.1843 5.2238 30.0086 1.96546 35.0161 0.0619051C35.342 -0.058139 35.805 0.0104577 36.148 0.147651C41.4814 2.257 45.3056 5.94407 47.6894 11.1403C47.8266 11.4146 47.9466 11.7062 48.1181 12.0663C48.4782 11.7748 48.7869 11.5004 49.1128 11.2432C51.8738 9.06521 55.0635 8.12201 58.5105 8.12201C60.3626 8.12201 62.2147 8.31065 64.0668 8.46499C64.2898 8.48214 64.5984 8.68793 64.7185 8.87657C70.3434 19.3376 71.7325 30.1415 66.7421 41.2027C62.7292 50.1032 55.698 55.7624 46.3346 58.4033C37.417 60.9243 28.6024 60.5984 20.2164 56.4312C9.92693 51.3036 3.82183 42.952 1.96972 31.6335C0.68353 23.7449 2.32985 16.3193 6.10266 9.3053C6.3599 8.82513 6.65144 8.61934 7.21736 8.60219C9.37815 8.51644 11.5389 8.24205 13.6997 8.2935C16.9924 8.37925 19.942 9.52824 22.4115 11.8091C22.4801 11.8777 22.583 11.9291 22.7202 12.0149ZM38.8919 41.7001C38.8404 41.1341 38.8061 40.6197 38.7547 40.1223C38.446 37.1212 38.1373 34.103 37.8115 31.1019C37.76 30.6217 37.8629 30.3473 38.3088 30.0558C40.3495 28.7353 41.1898 26.3344 40.4867 24.0879C39.8008 21.8756 37.8115 20.4351 35.4449 20.4351C33.0954 20.4351 31.089 21.9099 30.4373 24.1222C29.7514 26.4202 30.6088 28.7353 32.6667 30.0901C33.0611 30.3473 33.2155 30.5703 33.164 31.0504C32.9411 33.0054 32.7696 34.9604 32.581 36.9154C32.4266 38.4932 32.2894 40.0709 32.1351 41.7001C34.3988 41.7001 36.5939 41.7001 38.8919 41.7001Z" fill="white"/>
</svg>
