<svg width="402" height="60" viewBox="0 0 402 60" fill="none" xmlns="http://www.w3.org/2000/svg">
<path d="M214.43 38.8646C213.907 40.6114 213.208 42.2707 212.425 43.7555C212.164 44.2795 211.903 44.7162 211.64 45.2402C210.246 47.2489 207.805 48.6462 205.19 48.6462C202.837 48.6462 200.658 47.5982 199.264 45.9388C199.176 45.8515 199.089 45.7641 199.003 45.6769C197.52 44.0174 195.429 42.9694 193.075 42.9694C192.464 42.9694 191.942 43.0567 191.42 43.1441V59.4761C189.676 59.8253 187.758 60 185.928 60C169.368 60 156.032 46.5503 156.032 30.0436C156.032 13.5371 169.28 0 185.841 0C188.979 0 192.028 0.524017 194.905 1.39738L186.014 10.3057L191.42 15.7205L210.42 34.7598L211.204 35.5459L214.43 38.8646Z" fill="white"/>
<path d="M0.53772 38.4284L3.32684 37.0311C4.80857 40.4372 8.20782 42.2713 12.5658 42.2713C17.2725 42.2713 20.846 39.8259 20.846 35.6337C20.846 31.0922 16.7495 30.2188 12.3043 29.2581C7.1619 28.1229 1.32216 26.6381 1.32216 19.826C1.32216 14.4984 6.29029 10.3936 12.2172 10.3936C17.0982 10.3936 21.5434 12.7516 23.3737 17.2058L20.6718 18.6032C19.1028 15.2844 16.1394 13.4503 12.13 13.4503C8.12066 13.4503 4.63425 16.0704 4.63425 19.6513C4.63425 24.1927 8.81793 25.0661 13.3503 26.0268C18.4927 27.1622 24.2453 28.6468 24.2453 35.5465C24.071 41.5726 19.0156 45.4154 12.5658 45.4154C7.1619 45.4154 2.45525 42.9699 0.53772 38.4284Z" fill="white"/>
<path d="M29.9108 45.0659V10.9175H33.1356V26.5506H53.3568V10.9175H56.5818V45.0659H53.3568V29.5201H33.1356V44.9786H29.9108V45.0659Z" fill="white"/>
<path d="M68.1747 10.9175V45.0659H64.9498V10.9175H68.1747Z" fill="white"/>
<path d="M74.0144 45.0655L78.8954 14.0611C79.3311 11.6157 81.0743 10.3057 83.2533 10.3057C85.1709 10.3057 86.914 11.2664 87.5241 13.4498L94.8457 39.3886C95.0199 40.1746 95.1942 40.4367 95.6301 40.4367C96.0658 40.4367 96.2402 40.0872 96.4145 39.3886L103.736 13.5371C104.346 11.3537 106.089 10.3057 108.007 10.3057C110.099 10.3057 111.842 11.6157 112.278 14.1485L116.723 44.8908H113.498L109.314 15.0218C109.14 13.8865 108.878 13.1878 107.92 13.1878C107.222 13.1878 106.699 13.7991 106.438 14.8472L98.8549 40.8734C98.4192 42.4454 97.1118 43.3188 95.6301 43.3188C94.2355 43.3188 92.841 42.5328 92.4051 40.9608L84.8222 14.7598C84.4736 13.7118 84.1249 13.1878 83.4277 13.1878C82.7303 13.1878 82.1202 13.7991 81.9459 15.0218L77.3264 44.9781H74.0144V45.0655Z" fill="white"/>
<path d="M128.836 14.4984C129.708 11.7036 131.713 10.3936 134.327 10.3936C136.855 10.3936 138.947 11.7036 139.819 14.4984L149.406 45.066H146.094L143.218 35.5465L125.611 35.6337L122.561 45.066H119.249L128.836 14.4984ZM126.396 32.4897H142.172L136.942 15.4591C136.506 14.0617 135.635 13.363 134.327 13.363C132.933 13.363 132.148 14.0617 131.713 15.4591L126.396 32.4897Z" fill="white"/>
<path d="M221.053 27.9482C221.053 18.1664 228.723 10.3936 238.049 10.3936C243.802 10.3936 248.856 13.2757 251.558 17.9919L248.945 19.5639C246.679 15.8084 242.581 13.4503 238.049 13.4503C230.641 13.4503 224.452 19.826 224.452 27.9482C224.452 36.1578 230.553 42.5333 238.049 42.5333C242.581 42.5333 246.679 40.2625 248.945 36.507L251.558 38.0792C248.856 42.7954 243.802 45.6775 238.049 45.6775C228.723 45.5901 221.053 37.8171 221.053 27.9482Z" fill="white"/>
<path d="M261.321 14.4984C262.192 11.7036 264.197 10.3936 266.812 10.3936C269.428 10.3936 271.432 11.7036 272.302 14.4984L281.89 45.066H278.58L275.703 35.5465L258.097 35.6337L255.045 45.066H251.733L261.321 14.4984ZM258.88 32.4897H274.657L269.428 15.4591C268.992 14.0617 268.12 13.363 266.812 13.363C265.418 13.363 264.633 14.0617 264.197 15.4591L258.88 32.4897Z" fill="white"/>
<path d="M286.772 45.0659V10.9175H296.623C305.338 10.9175 311.264 14.7603 311.264 22.7078C311.264 30.9174 305.075 34.5855 296.709 34.5855H289.998V45.1533H286.772V45.0659ZM289.998 13.9743V31.4415H296.623C302.898 31.4415 307.865 28.9088 307.865 22.6205C307.865 16.5943 303.246 13.8869 296.623 13.8869H289.998V13.9743Z" fill="white"/>
<path d="M319.021 10.9175V45.0659H315.795V10.9175H319.021Z" fill="white"/>
<path d="M347.261 13.9743H336.367V45.0659H333.142V13.9743H322.334V10.9175H347.261V13.9743Z" fill="white"/>
<path d="M354.67 14.4984C355.542 11.7036 357.547 10.3936 360.16 10.3936C362.775 10.3936 364.78 11.7036 365.652 14.4984L375.24 45.066H371.841L368.964 35.5463L351.358 35.6337L348.395 45.1534H345.083L354.67 14.4984ZM352.23 32.4897H368.004L362.775 15.4591C362.34 14.0617 361.468 13.363 360.16 13.363C358.766 13.363 357.982 14.0617 357.547 15.4591L352.23 32.4897Z" fill="white"/>
<path d="M383.346 42.0091H401.127V45.0659H383.346C380.905 45.0659 380.122 43.8432 380.122 41.8346V10.9175H383.346V42.0091Z" fill="white"/>
</svg>
